# xmcd
#
# Track frame offsets: 
#        150
#        19695
#        38485
#        55252
#        70145
#        85500
#        112740
#        128855
#        150012
#        165475
#        179372
#        188035
#        202232
#        219070
#        233645
#        249040
#        262255
#        277965
#        333147
#        352452
#
# Disc length: 4758 seconds
#
# Revision: 1
# Processed by: cddbd v1.5.2PL0 Copyright (c) Steve Scherf et al.
# Submitted via: ExactAudioCopyFreeDBPlugin 1.0
#
DISCID=05129414
DTITLE=Allen Toussaint - The Complete Warner Recordings
DYEAR=2003
DGENRE=Rhythm and Blues
TTITLE0=Night People
TTITLE1=Just a Kiss Away
TTITLE2=With You in Mind
TTITLE3=Lover of Love
TTITLE4=To Be With You
TTITLE5=Motion
TTITLE6=Viva la Money
TTITLE7=Declaration of Love
TTITLE8=Happiness
TTITLE9=Optimism Blues
TTITLE10=Intro - High Life (live)
TTITLE11=Touch of Love (live)
TTITLE12=Brickyard Blues (live)
TTITLE13=What Is Success (live)
TTITLE14=Freedom for the Stallion (live)
TTITLE15=Last Train (live)
TTITLE16=Shoo-Ra (live)
TTITLE17=Allen and Gary Brown (live)
TTITLE18=Southern Nights (live)
TTITLE19=Allen's Closing Remarks (live)
EXTD=YEAR: 2003
EXTT0=
EXTT1=
EXTT2=
EXTT3=
EXTT4=
EXTT5=
EXTT6=
EXTT7=
EXTT8=
EXTT9=
EXTT10=
EXTT11=
EXTT12=
EXTT13=
EXTT14=
EXTT15=
EXTT16=
EXTT17=
EXTT18=
EXTT19=
PLAYORDER=
